<svg width="132" height="40" fill="none" xmlns="http://www.w3.org/2000/svg"><path d="M121 19.4h-4.6c-3 0-4.6 2.2-4.6 6.1v13.8h-8.9V19.4h-3.7c-3 0-4.6 2.2-4.6 6.1v13.8h-8.9V12h8.9v4.1C96.1 12.9 98 12 101 12h10.8v4.1c1.5-3.3 3.4-4.1 6.4-4.1h3zm-37.4 8.3H65.3c.4 3.1 2.4 4.7 5.5 4.7 2.4 0 4-1 4.6-2.7l7.9 2.2c-1.9 4.7-6.7 7.6-12.5 7.6-9.6 0-14.1-7.6-14.1-14.1 0-6.4 3.9-13.9 13.5-13.9 10.2 0 13.6 7.7 13.6 13.5 0 1.4 0 2.1-.2 2.7zm-8.4-5.2c-.1-2.4-1.9-4.4-4.9-4.4-2.8 0-4.4 1.2-5 4.4zm-34 16.8h7.7l9.8-27.1h-8.9L45.1 28l-4.7-16h-8.9zM5 39.3h8.8V19.4h8.5v19.9H31V12H13.8v-1.6c0-1.8 1.3-3 3.3-3h5.2V0h-6.5C9.3 0 5 4 5 9.8V12H0v7.4h5z" fill="#404145"></path><path d="M126.5 40c3 0 5.5-2.5 5.5-5.5s-2.5-5.5-5.5-5.5-5.5 2.5-5.5 5.5 2.5 5.5 5.5 5.5z" fill="#1dbf73"></path></svg>
